<svg width="75" height="84" viewBox="0 0 75 84" fill="none" xmlns="http://www.w3.org/2000/svg">
<path d="M31.7057 22.7519C32.6037 19.9879 36.5139 19.9879 37.412 22.7519L41.6442 35.7773C42.0458 37.0134 43.1977 37.8503 44.4974 37.8503H58.1932C61.0993 37.8503 62.3077 41.5691 59.9565 43.2773L48.8764 51.3275C47.8249 52.0914 47.385 53.4455 47.7866 54.6816L52.0188 67.7071C52.9169 70.471 49.7534 72.7694 47.4023 71.0611L36.3222 63.011C35.2707 62.247 33.8469 62.247 32.7955 63.011L21.7154 71.0611C19.3642 72.7694 16.2008 70.471 17.0988 67.7071L21.3311 54.6816C21.7327 53.4455 21.2927 52.0914 20.2412 51.3275L9.16112 43.2773C6.80998 41.5691 8.01831 37.8503 10.9245 37.8503H24.6203C25.9199 37.8503 27.0718 37.0134 27.4734 35.7773L31.7057 22.7519Z" fill="#D92373"/>
<path d="M59.1271 5.8541C59.7258 4.01148 62.3326 4.01148 62.9313 5.8541L63.7167 8.27147C63.9845 9.09552 64.7524 9.65344 65.6189 9.65344H68.1606C70.0981 9.65344 70.9036 12.1327 69.3362 13.2715L67.2799 14.7655C66.5789 15.2748 66.2856 16.1775 66.5533 17.0016L67.3388 19.4189C67.9375 21.2616 65.8285 22.7938 64.2611 21.655L62.2048 20.161C61.5038 19.6517 60.5546 19.6517 59.8536 20.161L57.7973 21.655C56.2298 22.7938 54.1209 21.2616 54.7196 19.4189L55.505 17.0016C55.7728 16.1775 55.4795 15.2748 54.7785 14.7655L52.7222 13.2715C51.1547 12.1327 51.9603 9.65344 53.8977 9.65344H56.4395C57.306 9.65344 58.0739 9.09552 58.3416 8.27147L59.1271 5.8541Z" fill="#D92373"/>
<path d="M6.91999 16.4916C7.40343 15.0038 9.50834 15.0038 9.99177 16.4916C10.208 17.157 10.828 17.6075 11.5277 17.6075C13.0921 17.6075 13.7425 19.6094 12.4769 20.529C11.9109 20.9402 11.674 21.6691 11.8902 22.3345C12.3737 23.8224 10.6708 25.0596 9.40511 24.14C8.8391 23.7288 8.07266 23.7288 7.50665 24.14C6.24101 25.0596 4.5381 23.8224 5.02153 22.3345C5.23773 21.6691 5.00088 20.9402 4.43487 20.529C3.16923 19.6094 3.81968 17.6075 5.3841 17.6075C6.08373 17.6075 6.70379 17.157 6.91999 16.4916Z" fill="#D92373"/>
</svg>
