<svg width="32" height="32" viewBox="0 0 32 32" fill="none" xmlns="http://www.w3.org/2000/svg">
<g clip-path="url(#clip0_1060_25)">
<path d="M29 31.999H3C2.20435 31.999 1.44152 31.6827 0.878906 31.1201C0.316297 30.5575 0 29.7947 0 28.999V2.99902C0 2.20337 0.316297 1.44054 0.878906 0.87793C1.44152 0.315321 2.20435 -0.000976562 3 -0.000976562H29C29.7956 -0.000976562 30.5585 0.315321 31.1211 0.87793C31.6837 1.44054 32 2.20337 32 2.99902V28.999C32 29.7947 31.6837 30.5575 31.1211 31.1201C30.5585 31.6827 29.7956 31.999 29 31.999ZM12.3379 12.376C10.5498 12.3894 8.82391 13.0343 7.46484 14.1963C6.00361 15.4392 5.08186 17.2012 4.89453 19.1104C4.87153 19.5694 4.8823 20.032 4.9043 20.585C5.02568 21.7473 5.41875 22.8646 6.05078 23.8477C6.68281 24.8307 7.53779 25.6522 8.54492 26.2451C9.66778 26.908 10.9442 27.2623 12.248 27.2715C12.369 27.2715 12.4962 27.2707 12.6172 27.2617C13.7809 27.2316 14.9224 26.929 15.9473 26.377C16.9722 25.8249 17.8521 25.0391 18.5176 24.084C19.3169 22.9307 19.7818 21.5787 19.8613 20.1777C19.8813 18.3237 19.8828 16.4354 19.8828 14.6084C19.8828 13.5924 19.8828 12.5418 19.8828 11.5078C20.3963 11.8563 20.9338 12.165 21.4941 12.4316C22.8119 13.0318 24.238 13.3587 25.6855 13.3926V9.39941C24.1162 9.29882 22.6255 8.67406 21.4531 7.62598C20.3744 6.51696 19.7512 5.04353 19.707 3.49707C19.219 3.49707 18.7252 3.49707 18.2422 3.49707H18.1758C17.4008 3.49707 16.5996 3.49674 15.8086 3.51074C15.7926 6.05574 15.793 8.64544 15.793 11.1484C15.793 12.7544 15.793 14.1687 15.793 15.4707C15.793 15.7767 15.793 16.0846 15.793 16.3906C15.793 16.5416 15.793 16.6908 15.793 16.8418C15.793 18.1308 15.7927 19.4643 15.7227 20.7803C15.6811 21.1408 15.5488 21.4849 15.3379 21.7803L15.3105 21.8262C15.0177 22.2992 14.6109 22.6919 14.1289 22.9697C13.6469 23.2476 13.1049 23.4016 12.5488 23.418C12.4708 23.425 12.3889 23.4287 12.2969 23.4287C11.5108 23.4001 10.7582 23.1011 10.168 22.5811C9.57775 22.061 9.18598 21.3524 9.05859 20.5762C9.05859 20.5342 9.05859 20.4922 9.05859 20.4502L9.05273 20.3203C9.00508 19.8686 9.0534 19.412 9.19531 18.9805C9.44739 18.2713 9.92421 17.6631 10.5527 17.249C11.1031 16.8815 11.7504 16.69 12.4121 16.6992C12.8038 16.6994 13.1934 16.7601 13.5664 16.8799C13.5664 16.2879 13.5779 15.6961 13.5879 15.0391C13.6039 14.2161 13.6185 13.3394 13.6055 12.4844C13.1875 12.4082 12.7627 12.371 12.3379 12.374V12.376Z" fill="white"/>
</g>
<defs>
<clipPath id="clip0_1060_25">
<rect width="32" height="31.997" fill="white"/>
</clipPath>
</defs>
</svg>
